<svg xmlns="http://www.w3.org/2000/svg" width="200" height="199.999" viewBox="0 0 200 199.999"><path d="M113.229,262.6a100,100,0,1,0,100,100A100.08,100.08,0,0,0,113.229,262.6Zm0,10.419A89.581,89.581,0,1,1,23.648,362.6,89.5,89.5,0,0,1,113.229,273.023Zm-12.049,27.82a5.21,5.21,0,0,0-2.907,1.015l-.008.007c-5.233,1.272-9.561,4.567-11.265,9.15a15.693,15.693,0,0,0,4.091,16.963L127.908,362.7,90.946,397.229a15.67,15.67,0,0,0-5.137,11.657,16.368,16.368,0,0,0,14.51,15.525,15.637,15.637,0,0,0,11.965-4.344l49.127-45.905a15.719,15.719,0,0,0,.046-22.784L112.53,305.242a15.465,15.465,0,0,0-9.4-4.068,5.205,5.205,0,0,0-1.784-.33v.03c-.056,0-.106-.03-.161-.03Zm.315,10.411a5.2,5.2,0,0,1,3.783,1.469l.054.046,48.981,46.19a5.117,5.117,0,0,1-.016,7.589L105.17,412.453c-1.587,1.485-2.728,1.692-3.9,1.584a5.971,5.971,0,0,1-5.052-5.413,4.6,4.6,0,0,1,1.838-3.783l41.015-38.324a5.209,5.209,0,0,0,.016-7.6l-40.907-38.57-.054-.046a5.212,5.212,0,0,1,3.368-9.05Z" transform="translate(-13.229 -262.604)"/></svg>